<svg width="292" height="54" viewBox="0 0 292 54" fill="none" xmlns="http://www.w3.org/2000/svg">
<path fill-rule="evenodd" clip-rule="evenodd" d="M59.2466 14.3539H80.1728V18.9373H72.4494V39.2358H66.9701V18.9373H59.2466V14.3539ZM180.724 14.3684H186.203V39.2503H180.724V14.3684ZM167.871 14.3684C169.882 14.3684 171.572 14.7322 172.914 15.4451C174.254 16.1727 175.259 17.1331 175.915 18.3262C176.585 19.5193 176.906 20.8289 176.906 22.2549C176.906 23.2298 176.731 24.1756 176.396 25.1215C176.047 26.0528 175.522 26.9113 174.793 27.6825C174.079 28.4391 173.16 29.0502 172.023 29.5013L177.416 39.2503H171.324L166.588 30.1852H162.493V39.2503H157.014V14.3684H167.871ZM171.324 22.2549C171.324 21.2363 171.019 20.4361 170.421 19.8395C169.809 19.243 168.876 18.952 167.594 18.952H162.507V25.6017H167.594C168.453 25.6017 169.153 25.4707 169.692 25.2088C170.232 24.9468 170.654 24.5685 170.916 24.0593C171.193 23.55 171.324 22.9533 171.324 22.2695V22.2549ZM148.3 22.4005C147.615 21.149 146.741 20.2324 145.677 19.6504C144.628 19.0683 143.447 18.7773 142.135 18.7773C140.766 18.7773 139.512 19.1264 138.42 19.825C137.312 20.5234 136.452 21.4837 135.826 22.6915C135.199 23.8992 134.878 25.2816 134.878 26.8094C134.878 28.3373 135.184 29.8214 135.811 31.0145C136.423 32.2078 137.297 33.1536 138.405 33.8229C139.527 34.4923 140.824 34.8414 142.326 34.8414C143.258 34.8414 144.103 34.6814 144.89 34.3612C145.677 34.0412 146.377 33.59 146.988 33.0225C147.6 32.4551 148.125 31.8004 148.548 31.0728V29.9378H142.135V25.6017H153.706V32.0769C153.138 33.3863 152.307 34.5941 151.214 35.7146C150.121 36.8349 148.81 37.7517 147.266 38.4501C145.721 39.1485 143.972 39.4978 142.004 39.4978C140.154 39.4978 138.463 39.1922 136.919 38.5665C135.374 37.9408 134.033 37.0678 132.896 35.9328C131.76 34.7978 130.871 33.4446 130.244 31.9022C129.618 30.3452 129.297 28.6428 129.297 26.7948C129.297 24.9468 129.618 23.2444 130.244 21.702C130.871 20.1451 131.745 18.8064 132.882 17.6714C134.004 16.5364 135.345 15.6634 136.889 15.0377C138.434 14.4265 140.125 14.1064 141.976 14.1064C143.709 14.1064 145.341 14.3829 146.872 14.9214C148.401 15.4597 149.743 16.2599 150.88 17.2785C152.015 18.3117 152.862 19.563 153.4 21.0326L148.314 22.3858L148.3 22.4005ZM126.018 14.3684V39.2503H120.466L110.353 23.3899V39.2503H104.873V14.3684H110.426L120.495 30.3016V14.3684H126.018ZM101.565 18.952H88.9601V24.6413H98.3886V28.9774H88.9601V34.6669H101.565V39.2503H83.4807V14.3684H101.565V18.952Z" fill="black"/>
<path fill-rule="evenodd" clip-rule="evenodd" d="M216.457 14.3542V39.2647H213.583L200.318 18.9137V39.2647H197.488V14.3542H200.361L213.627 34.6759V14.3542H216.457ZM238.067 16.8452H224.628V25.3527H234.73V27.8437H224.628V36.7735H238.067V39.2647H221.799V14.3542H238.067V16.8452ZM250.781 39.2647H247.661L240.68 14.3542H243.699L249.228 35.8122L255.324 14.3542H258.474L264.541 35.783L270.114 14.3542H273.089L266.108 39.2647H262.988L256.892 18.6224L250.795 39.2647H250.781ZM277.82 32.9278C277.966 33.5687 278.27 34.2097 278.72 34.8362C279.184 35.4625 279.823 35.987 280.636 36.3948C281.448 36.8173 282.494 37.0213 283.77 37.0213C285.584 37.0213 286.934 36.5988 287.82 35.7393C288.691 34.8798 289.126 33.8747 289.126 32.7092C289.126 31.777 288.88 31.0195 288.386 30.4367C287.892 29.8395 287.211 29.3442 286.369 28.9654C285.512 28.572 284.555 28.2225 283.495 27.9165C282.552 27.6543 281.608 27.363 280.68 27.0425C279.75 26.722 278.894 26.314 278.139 25.8334C277.384 25.3527 276.775 24.7117 276.325 23.925C275.875 23.1384 275.658 22.1623 275.658 21.0115C275.658 19.613 275.992 18.3893 276.645 17.3697C277.312 16.3352 278.241 15.534 279.445 14.9659C280.65 14.3977 282.058 14.1064 283.669 14.1064C285.062 14.1064 286.281 14.3104 287.326 14.7182C288.372 15.1262 289.242 15.6797 289.939 16.4082C290.636 17.1365 291.144 17.9669 291.478 18.9137L288.967 19.8752C288.806 19.3362 288.487 18.7972 288.009 18.2874C287.53 17.7775 286.92 17.355 286.166 17.02C285.411 16.6849 284.541 16.5247 283.583 16.5247C282.623 16.5247 281.783 16.6849 281.013 17.02C280.244 17.355 279.634 17.8212 279.184 18.4477C278.734 19.0594 278.517 19.817 278.517 20.691C278.517 21.6379 278.778 22.3954 279.316 22.949C279.852 23.5025 280.548 23.9542 281.448 24.3037C282.334 24.6534 283.306 24.9739 284.38 25.2797C285.353 25.5857 286.297 25.9207 287.195 26.2704C288.111 26.62 288.923 27.0715 289.648 27.5815C290.375 28.1059 290.941 28.7615 291.361 29.5335C291.783 30.3202 292 31.2817 292 32.418C292 33.6707 291.709 34.8507 291.114 35.9287C290.52 37.0067 289.634 37.8807 288.444 38.5217C287.255 39.1773 285.716 39.4978 283.858 39.4978C282.305 39.4978 280.926 39.25 279.75 38.7693C278.575 38.2887 277.603 37.6185 276.848 36.7882C276.094 35.9578 275.57 35.011 275.28 33.9475L277.864 32.9132L277.82 32.9278Z" fill="black"/>
<path fill-rule="evenodd" clip-rule="evenodd" d="M18.433 49.1357H35.1842L18.433 36.4196V49.1357ZM4.46623 18.4178H18.433L35.1842 31.1337V18.4178H49.1361V4.46582H4.46623V18.4178Z" fill="#C70303"/>
</svg>
