<svg width="215" height="40" viewBox="0 0 215 40" fill="none" xmlns="http://www.w3.org/2000/svg">
<g clip-path="url(#clip0_1_2026)">
<path fill-rule="evenodd" clip-rule="evenodd" d="M43.6028 10.5637H59.0035V13.9369H53.3194V28.8757H49.2869V13.9369H43.6028V10.5637ZM133.005 10.5744H137.037V28.8863H133.005V10.5744ZM123.545 10.5744C125.026 10.5744 126.269 10.8421 127.257 11.3668C128.243 11.9023 128.983 12.6091 129.466 13.4871C129.959 14.3652 130.194 15.329 130.194 16.3785C130.194 17.096 130.066 17.7921 129.82 18.4882C129.562 19.1736 129.176 19.8054 128.639 20.3729C128.114 20.9298 127.438 21.3795 126.601 21.7115L130.57 28.8863H126.087L122.601 22.2148H119.588V28.8863H115.555V10.5744H123.545ZM126.087 16.3785C126.087 15.6289 125.862 15.0399 125.422 14.6009C124.972 14.1618 124.285 13.9477 123.342 13.9477H119.598V18.8415H123.342C123.974 18.8415 124.489 18.7452 124.885 18.5524C125.283 18.3596 125.593 18.0812 125.786 17.7064C125.99 17.3317 126.087 16.8925 126.087 16.3892V16.3785ZM109.142 16.4857C108.638 15.5646 107.995 14.89 107.212 14.4617C106.439 14.0333 105.57 13.8191 104.605 13.8191C103.597 13.8191 102.675 14.0761 101.87 14.5902C101.055 15.1042 100.423 15.811 99.9615 16.6998C99.5003 17.5886 99.2643 18.606 99.2643 19.7304C99.2643 20.8548 99.4895 21.9471 99.9508 22.8252C100.401 23.7033 101.045 24.3994 101.86 24.892C102.686 25.3846 103.64 25.6416 104.745 25.6416C105.431 25.6416 106.053 25.5239 106.632 25.2882C107.212 25.0526 107.727 24.7206 108.176 24.303C108.627 23.8853 109.013 23.4035 109.324 22.868V22.0327H104.605V18.8415H113.121V23.607C112.703 24.5707 112.091 25.4596 111.287 26.2842C110.482 27.1087 109.518 27.7834 108.381 28.2974C107.244 28.8114 105.957 29.0684 104.508 29.0684C103.147 29.0684 101.903 28.8436 100.766 28.3831C99.6289 27.9226 98.6423 27.2801 97.8057 26.4448C96.9693 25.6095 96.315 24.6136 95.8539 23.4785C95.3927 22.3326 95.1568 21.0797 95.1568 19.7196C95.1568 18.3596 95.3927 17.1067 95.8539 15.9716C96.315 14.8257 96.9585 13.8405 97.795 13.0052C98.6209 12.1699 99.6076 11.5274 100.744 11.067C101.881 10.6172 103.125 10.3816 104.488 10.3816C105.764 10.3816 106.965 10.5851 108.091 10.9813C109.216 11.3775 110.204 11.9665 111.04 12.7161C111.876 13.4765 112.499 14.3974 112.896 15.479L109.152 16.4749L109.142 16.4857ZM92.7437 10.5744V28.8863H88.6576L81.2145 17.2138V28.8863H77.182V10.5744H81.2682L88.679 22.3005V10.5744H92.7437ZM74.7475 13.9477H65.4705V18.1348H72.4095V21.326H65.4705V25.5132H74.7475V28.8863H61.438V10.5744H74.7475V13.9477Z" fill="black"/>
<path fill-rule="evenodd" clip-rule="evenodd" d="M159.302 10.5639V28.8969H157.187L147.425 13.9195V28.8969H145.342V10.5639H147.457L157.22 25.5198V10.5639H159.302ZM175.207 12.3972H165.316V18.6583H172.75V20.4916H165.316V27.0636H175.207V28.8969H163.234V10.5639H175.207V12.3972ZM184.564 28.8969H182.267L177.129 10.5639H179.351L183.421 26.356L187.907 10.5639H190.225L194.69 26.3346L198.792 10.5639H200.981L195.843 28.8969H193.547L189.061 13.7052L184.574 28.8969H184.564ZM204.463 24.2332C204.57 24.705 204.794 25.1767 205.125 25.6377C205.467 26.0987 205.937 26.4847 206.535 26.7848C207.133 27.0957 207.902 27.2459 208.842 27.2459C210.177 27.2459 211.171 26.9349 211.823 26.3024C212.463 25.6698 212.784 24.9301 212.784 24.0724C212.784 23.3863 212.602 22.8288 212.239 22.3999C211.876 21.9604 211.374 21.5959 210.754 21.3171C210.124 21.0276 209.419 20.7703 208.64 20.5452C207.945 20.3522 207.251 20.1378 206.567 19.9019C205.883 19.6661 205.253 19.3658 204.698 19.0121C204.142 18.6583 203.694 18.1866 203.363 17.6076C203.031 17.0287 202.872 16.3103 202.872 15.4634C202.872 14.4342 203.118 13.5336 203.598 12.7832C204.089 12.0219 204.772 11.4322 205.659 11.0141C206.546 10.596 207.582 10.3816 208.767 10.3816C209.793 10.3816 210.69 10.5317 211.459 10.8318C212.228 11.1321 212.869 11.5395 213.382 12.0756C213.895 12.6116 214.268 13.2227 214.515 13.9195L212.667 14.6271C212.548 14.2305 212.314 13.8338 211.962 13.4586C211.609 13.0833 211.16 12.7724 210.605 12.5258C210.049 12.2792 209.409 12.1613 208.704 12.1613C207.998 12.1613 207.379 12.2792 206.812 12.5258C206.247 12.7724 205.798 13.1155 205.467 13.5765C205.136 14.0268 204.976 14.5843 204.976 15.2275C204.976 15.9244 205.168 16.4819 205.564 16.8893C205.958 17.2967 206.471 17.6291 207.133 17.8863C207.785 18.1437 208.5 18.3796 209.291 18.6046C210.007 18.8298 210.701 19.0764 211.363 19.3337C212.036 19.591 212.634 19.9233 213.168 20.2986C213.703 20.6846 214.119 21.167 214.428 21.7352C214.739 22.3142 214.899 23.0218 214.899 23.858C214.899 24.78 214.685 25.6484 214.247 26.4418C213.81 27.2352 213.158 27.8784 212.281 28.3501C211.406 28.8326 210.274 29.0684 208.906 29.0684C207.763 29.0684 206.749 28.8861 205.883 28.5323C205.018 28.1786 204.303 27.6854 203.748 27.0743C203.192 26.4632 202.807 25.7664 202.593 24.9837L204.495 24.2225L204.463 24.2332Z" fill="black"/>
<path fill-rule="evenodd" clip-rule="evenodd" d="M13.5658 36.1618H25.894L13.5658 26.8033V36.1618ZM3.28696 13.5548H13.5658L25.894 22.9131V13.5548H36.162V3.28678H3.28696V13.5548Z" fill="#C70303"/>
</g>
<defs>
<clipPath id="clip0_1_2026">
<rect width="214.899" height="39.45" fill="white"/>
</clipPath>
</defs>
</svg>
