<svg width="18" height="22" viewBox="0 0 18 22" fill="none" xmlns="http://www.w3.org/2000/svg">
<g clip-path="url(#clip0_1_2270)">
<path d="M9.46726 12.6264H3.93613C2.63917 12.6264 1.84446 11.2405 2.40395 10.1406C0.782748 9.74642 0.693741 7.45768 2.18778 6.86007C1.48209 6.57397 1.14514 5.92549 1.12606 5.28973C1.12606 4.7684 1.41215 3.84656 2.0797 3.61132C1.68553 2.47331 2.20686 1.12549 3.39573 1.12549H13.4344C15.3608 1.12549 16.8421 3.07092 16.8421 4.99728V9.12338C16.8421 9.84179 17.0074 11.0307 16.1936 12.2387L10.8214 20.122C10.262 20.9168 9.65162 20.8977 9.16209 20.6434C8.79971 20.4463 8.58354 19.8868 8.69162 19.3972L10.0776 13.4148C10.1857 13.0015 9.8805 12.6201 9.46726 12.6201V12.6264Z" stroke="black" stroke-opacity="0.5" stroke-width="1.12526" stroke-linecap="round" stroke-linejoin="round"/>
</g>
<defs>
<clipPath id="clip0_1_2270">
<rect width="18.0042" height="21.38" fill="white"/>
</clipPath>
</defs>
</svg>
