<svg width="18" height="22" viewBox="0 0 18 22" fill="none" xmlns="http://www.w3.org/2000/svg">
<g clip-path="url(#clip0_1_2268)">
<path d="M8.52454 9.54094H14.0637C15.3624 9.54094 16.1583 10.9678 15.5981 12.1001C17.2216 12.5059 17.3107 14.8621 15.8145 15.4774C16.5212 15.772 16.8586 16.4395 16.8777 17.0941C16.8777 17.6308 16.5912 18.5799 15.9227 18.822C16.3174 19.9937 15.7954 21.3812 14.6048 21.3812H4.55168C2.62255 21.3812 1.13909 19.3784 1.13909 17.3952V13.1473C1.13909 12.4077 0.973552 11.1838 1.7885 9.94019L7.16842 1.82415C7.7287 1.006 8.33991 1.02563 8.83014 1.28745C9.19305 1.49034 9.40952 2.06632 9.30129 2.5703L7.91333 8.72933C7.80509 9.15477 8.1107 9.54749 8.52454 9.54749V9.54094Z" stroke="black" stroke-opacity="0.5" stroke-width="1.12526" stroke-linecap="round" stroke-linejoin="round"/>
</g>
<defs>
<clipPath id="clip0_1_2268">
<rect width="18.0042" height="21.38" fill="white"/>
</clipPath>
</defs>
</svg>
